<?xml version="1.0" standalone="no"?>
<!DOCTYPE svg PUBLIC "-//W3C//DTD SVG 20010904//EN"
 "http://www.w3.org/TR/2001/REC-SVG-20010904/DTD/svg10.dtd">
<svg version="1.0" xmlns="http://www.w3.org/2000/svg"
 width="1080.000000pt" height="1080.000000pt" viewBox="0 0 1080.000000 1080.000000"
 preserveAspectRatio="xMidYMid meet">

<g transform="translate(0.000000,1080.000000) scale(0.100000,-0.100000)"
fill="#000000" stroke="none">
<path d="M4312 9408 c-7 -7 -12 -23 -12 -35 0 -21 61 -238 125 -448 14 -44 25
-87 25 -95 0 -36 55 -56 67 -24 5 14 -1 43 -27 124 -5 14 -15 50 -24 80 -96
338 -120 410 -136 410 -3 0 -11 -5 -18 -12z"/>
<path d="M5427 9153 c-3 -4 -14 -24 -24 -43 -25 -44 -188 -333 -238 -420 -38
-68 -38 -95 1 -95 18 0 48 45 134 200 71 128 85 153 132 235 27 46 48 93 46
105 -3 20 -41 34 -51 18z"/>
<path d="M3440 8775 c-15 -18 -7 -43 18 -53 9 -4 42 -21 72 -38 315 -180 434
-245 448 -242 11 2 17 13 17 28 0 25 -20 39 -224 152 -69 39 -93 52 -207 116
-51 29 -96 52 -102 52 -5 0 -15 -7 -22 -15z"/>
<path d="M4265 8504 c-8 -20 -15 -38 -15 -39 0 -2 -20 -45 -44 -96 -42 -91
-69 -150 -116 -254 -12 -27 -49 -105 -81 -172 -32 -67 -59 -127 -59 -132 0 -5
28 -23 63 -39 105 -51 315 -148 512 -237 33 -14 101 -47 152 -71 93 -44 117
-51 127 -35 3 5 16 11 28 14 13 3 75 24 138 47 63 23 129 46 146 51 18 5 36
15 42 22 5 6 47 102 92 212 45 110 86 209 90 220 26 59 90 222 90 228 0 4 -55
34 -122 66 -108 51 -300 144 -467 225 -55 26 -55 26 -308 26 l-253 0 -15 -36z
m523 -24 c16 -9 216 -105 420 -201 51 -24 91 -48 89 -53 -2 -6 -49 -21 -105
-35 l-101 -24 -43 21 c-221 105 -294 140 -432 206 -87 42 -163 76 -167 76 -5
0 -9 5 -9 10 0 13 324 13 348 0z m-379 -52 c47 -22 88 -42 90 -44 1 -1 -9 -28
-23 -58 -14 -31 -37 -80 -50 -108 -14 -29 -47 -102 -75 -162 -28 -59 -51 -110
-51 -112 0 -20 -93 -194 -103 -194 -8 0 -27 6 -43 14 -16 8 -50 24 -76 35 -26
12 -49 25 -52 30 -4 5 9 42 28 83 18 40 44 96 56 123 45 100 83 182 117 255
20 41 46 99 59 128 14 28 27 52 31 52 4 0 45 -19 92 -42z m218 -107 c21 -11
64 -31 96 -46 31 -14 57 -33 57 -40 0 -7 -11 -35 -24 -62 -13 -26 -34 -70 -46
-98 -13 -27 -35 -77 -50 -110 -15 -33 -38 -82 -50 -110 -12 -27 -36 -79 -52
-115 -17 -36 -34 -75 -39 -88 -12 -31 -33 -37 -72 -19 -17 8 -62 29 -99 46
-66 30 -82 51 -60 77 5 5 18 32 30 59 11 28 38 88 60 135 22 47 50 108 62 135
12 28 37 82 55 120 17 39 38 85 46 103 16 37 33 40 86 13z m304 -142 c35 -17
74 -35 87 -40 24 -9 28 -29 12 -57 -8 -15 -28 -58 -110 -237 -27 -60 -53 -116
-116 -253 -19 -41 -34 -77 -34 -82 0 -20 -32 -14 -112 23 -99 45 -101 49 -64
124 13 26 34 71 46 98 13 28 35 77 50 110 15 33 37 83 50 110 68 151 110 235
118 235 5 0 37 -14 73 -31z m419 -22 c0 -7 -4 -17 -8 -22 -5 -6 -33 -71 -62
-145 -120 -302 -163 -393 -190 -401 -14 -4 -76 -25 -137 -47 -62 -23 -114 -38
-117 -34 -2 4 6 30 19 57 38 78 110 235 135 290 32 72 88 195 105 230 12 27
24 33 112 56 114 31 143 34 143 16z"/>
<path d="M8063 7241 c-38 -24 -49 -53 -33 -90 11 -27 46 -51 75 -51 27 0 63
22 74 47 16 35 14 49 -11 77 -32 35 -66 41 -105 17z"/>
<path d="M8317 7113 c-12 -11 -8 -50 6 -60 6 -6 37 -23 67 -39 292 -152 624
-453 842 -764 101 -144 236 -387 288 -518 15 -38 38 -53 68 -45 17 4 22 13 22
39 0 19 -4 34 -10 34 -5 0 -10 5 -10 10 0 6 -29 68 -63 138 -226 453 -531 807
-917 1066 -167 112 -271 162 -293 139z"/>
<path d="M7060 7080 c-8 -5 -27 -10 -42 -10 -36 0 -172 -46 -226 -76 -56 -31
-140 -94 -171 -128 l-24 -26 -1853 0 c-1707 0 -1853 -1 -1865 -16 -8 -10 -16
-52 -19 -103 l-5 -86 -622 -3 -623 -2 -16 -24 c-14 -22 -11 -47 9 -68 1 -2
283 -5 627 -8 l625 -5 0 -270 0 -270 -346 -3 c-328 -2 -347 -3 -364 -22 -23
-25 -13 -68 18 -75 12 -2 173 -8 357 -12 l335 -8 3 -204 2 -203 -30 -46 c-27
-41 -30 -54 -30 -122 0 -52 7 -96 21 -136 56 -160 50 -196 -51 -314 -189 -221
-300 -579 -300 -972 0 -191 -3 -180 53 -225 11 -9 16 -53 21 -200 3 -103 11
-327 16 -498 20 -586 19 -572 46 -605 14 -16 38 -31 54 -35 16 -4 32 -11 35
-16 8 -12 232 -12 240 0 3 5 18 12 34 16 38 8 74 47 69 75 -2 14 -18 30 -43
44 -61 32 -58 13 -35 211 5 44 15 124 21 178 l11 97 33 0 c32 0 33 -1 40 -52
6 -52 26 -180 45 -288 6 -30 13 -91 17 -134 7 -92 20 -110 88 -128 25 -7 45
-16 45 -20 0 -4 43 -8 95 -8 52 0 95 4 95 9 0 5 17 12 37 16 51 9 93 41 93 70
0 25 -31 55 -79 74 -28 12 -30 15 -35 94 -3 45 -7 146 -9 225 l-4 142 33 0
c27 0 34 -4 34 -20 0 -11 4 -20 10 -20 5 0 12 -17 16 -37 10 -55 66 -172 112
-235 50 -69 127 -136 203 -180 32 -18 59 -36 59 -40 0 -5 -49 -8 -109 -8 -94
0 -112 -3 -135 -21 -31 -25 -33 -42 -6 -69 20 -20 33 -20 1936 -20 1532 0
1914 -3 1906 -12 -36 -45 -52 -92 -52 -154 0 -72 10 -94 72 -160 36 -38 38
-42 27 -73 -16 -45 -3 -124 27 -172 32 -52 104 -97 166 -105 44 -6 50 -10 64
-43 44 -105 164 -161 270 -126 27 10 56 24 66 32 14 13 22 12 65 -13 117 -66
265 -14 318 112 10 25 20 34 38 34 13 0 45 7 72 16 103 36 173 154 147 251
l-13 45 45 48 c94 101 87 240 -17 330 -28 25 -29 27 -16 68 36 120 -76 272
-199 272 -38 0 -41 2 -66 53 -37 77 -97 118 -181 125 -56 4 -72 1 -119 -22
l-54 -27 -39 23 c-49 28 -160 32 -213 6 -53 -25 -93 -74 -114 -140 -4 -14 -16
-18 -48 -18 -95 0 -188 -87 -206 -191 l-8 -44 -607 -3 c-334 -1 -607 1 -607 5
0 5 27 23 59 40 75 42 160 119 215 197 48 68 66 105 92 186 9 30 22 65 27 77
l10 22 981 3 981 3 48 24 c52 26 134 110 143 147 3 13 10 24 15 24 5 0 9 145
9 335 0 187 -4 335 -9 335 -5 0 -11 9 -14 20 -4 17 -78 139 -217 360 -14 22
-70 112 -125 201 -55 88 -111 178 -125 199 -14 22 -56 90 -94 152 -83 135
-147 235 -192 301 -33 50 -92 99 -131 111 -13 4 -23 12 -23 17 0 5 -115 9
-285 9 l-285 0 0 228 0 228 64 27 c231 101 409 349 436 607 43 404 -221 761
-622 842 -77 15 -210 20 -228 8z m18 -145 c3 -93 9 -115 30 -115 34 0 42 21
42 107 l0 83 48 0 c175 -2 398 -122 506 -273 70 -99 120 -210 127 -282 5 -49
-6 -56 -77 -54 -49 2 -69 -2 -81 -14 -13 -13 -14 -19 -3 -31 9 -12 32 -16 84
-16 102 0 102 -1 86 -107 -23 -162 -79 -280 -183 -390 -114 -121 -234 -184
-404 -214 -98 -17 -103 -14 -103 65 0 52 -4 67 -18 75 -36 19 -52 -4 -52 -76
l0 -66 -52 7 c-194 25 -387 166 -490 356 -51 95 -82 213 -76 295 l3 50 75 5
c63 4 75 8 78 24 6 30 -14 39 -76 37 -81 -3 -87 7 -62 98 62 224 241 411 460
480 133 42 134 41 138 -44z m-578 -205 c0 -5 -11 -29 -24 -52 -26 -47 -76
-188 -76 -215 0 -9 -5 -32 -12 -50 l-12 -33 -1716 2 -1715 3 -3 49 c-7 101
-16 96 182 96 185 0 206 5 206 50 0 44 -22 50 -195 50 -90 0 -170 3 -179 6
-11 4 -16 19 -16 48 0 24 3 46 7 49 11 11 3553 8 3553 -3z m-117 -487 c36
-181 79 -285 163 -394 158 -206 385 -305 681 -297 l98 3 3 -1255 c1 -690 0
-1265 -3 -1277 l-5 -23 -295 0 -295 0 0 50 c0 28 -4 58 -9 68 -5 9 -18 49 -30
87 -37 120 -117 234 -221 317 -64 51 -127 84 -215 113 -65 21 -96 25 -196 25
-103 0 -129 -4 -203 -29 -47 -15 -111 -44 -143 -62 -76 -45 -179 -149 -226
-228 -42 -71 -87 -194 -87 -238 0 -15 -5 -45 -11 -65 l-10 -38 -247 0 c-136 0
-252 4 -258 8 -7 4 -15 34 -19 67 -17 149 -78 276 -185 385 -84 85 -164 135
-282 174 -64 22 -95 26 -188 26 -131 0 -203 -16 -309 -68 -86 -43 -208 -151
-256 -227 -35 -56 -81 -163 -90 -213 -4 -17 -11 -32 -16 -32 -5 0 -9 -27 -9
-61 l0 -60 -32 3 -33 3 -9 333 c-7 287 -6 335 6 350 9 9 17 26 20 38 5 20 -3
132 -20 282 -4 39 -5 77 -2 83 8 12 116 -127 122 -156 3 -20 12 -20 466 -23
l462 -2 0 400 c0 220 -3 400 -7 400 -731 17 -897 19 -910 9 -10 -9 -13 -49
-13 -170 0 -88 -3 -159 -8 -159 -4 0 -13 10 -21 23 -36 57 -273 365 -303 393
-18 18 -49 37 -69 43 -43 14 -83 53 -103 103 -9 21 -16 39 -16 42 0 2 24 2 54
-1 46 -5 57 -2 75 16 20 20 21 31 21 177 l0 156 30 35 c50 56 37 129 -30 166
-30 16 -39 17 -72 6 -29 -9 -40 -9 -52 0 -9 8 -38 11 -73 10 l-58 -3 -3 151
c-2 117 0 153 11 161 10 8 146 13 463 14 l449 3 9 27 c8 22 6 32 -9 48 -17 19
-31 20 -469 22 l-451 3 -3 129 c-1 72 0 136 2 143 4 11 320 13 1720 13 l1714
0 5 -27z m1564 -1198 c75 -22 103 -56 248 -295 32 -52 72 -117 90 -145 103
-161 128 -200 191 -303 38 -62 80 -130 94 -152 110 -173 239 -391 249 -419 15
-45 15 -526 0 -586 -14 -54 -69 -121 -116 -140 -30 -13 -134 -15 -664 -15
l-629 0 0 486 0 486 163 -6 c89 -3 302 -7 472 -8 307 -3 310 -3 313 18 2 12
-90 178 -238 430 -133 225 -245 413 -249 417 -5 5 -110 8 -235 7 l-226 -1 0
121 0 120 243 0 c187 0 255 -3 294 -15z m-122 -281 c9 -4 68 -95 132 -203 63
-108 140 -235 169 -284 30 -48 54 -89 54 -92 0 -3 23 -41 50 -85 28 -44 50
-85 50 -91 0 -9 -51 -11 -202 -6 -112 4 -308 7 -435 7 l-233 0 0 380 0 380
199 0 c110 0 207 -3 216 -6z m-4001 -105 c14 -12 10 -183 -4 -187 -6 -2 -49
-33 -95 -68 -46 -35 -89 -64 -95 -64 -14 0 -14 312 0 326 12 12 180 6 194 -7z
m222 1 l104 0 -2 -347 -3 -348 -120 0 -120 0 -3 121 -3 120 41 41 c51 52 51
77 0 144 l-40 53 0 107 c0 108 4 124 28 114 7 -3 61 -5 118 -5z m399 -350 l0
-345 -110 0 -110 0 -3 335 c-1 184 0 341 3 348 3 9 31 12 112 10 l108 -3 0
-345z m-613 -255 l1 -90 -104 0 c-139 0 -140 9 -17 109 51 41 99 74 106 73 10
-1 14 -25 14 -92z m-447 -437 c2 -13 9 -275 15 -583 6 -308 12 -568 13 -579 4
-33 -24 -40 -129 -30 l-98 9 -7 30 c-3 17 -12 68 -18 115 -7 47 -19 126 -27
175 -8 50 -19 119 -24 155 -5 36 -17 110 -25 165 -9 55 -20 127 -25 160 -5 33
-12 77 -15 98 -3 21 -13 41 -21 44 -32 12 -34 3 -64 -272 -16 -147 -39 -349
-50 -440 -5 -44 -12 -109 -15 -145 -10 -108 0 -100 -135 -100 -68 0 -121 4
-125 10 -3 5 -10 150 -16 322 -5 172 -13 439 -18 593 -5 154 -7 283 -4 288 2
4 179 7 393 7 l390 0 5 -22z m937 -52 c101 -27 142 -46 214 -97 99 -72 167
-166 212 -292 48 -138 31 -337 -40 -457 -98 -165 -233 -262 -416 -299 -112
-23 -239 -3 -361 56 -93 44 -212 160 -252 243 -54 112 -63 148 -63 275 -1 101
3 131 22 187 63 180 234 339 414 383 72 17 206 18 270 1z m1873 -1 c180 -43
331 -176 409 -360 27 -65 29 -80 30 -200 1 -140 -4 -165 -57 -275 -46 -95
-159 -206 -257 -253 -80 -38 -193 -67 -263 -67 -46 0 -152 21 -207 41 -164 59
-311 222 -356 396 -18 69 -18 244 0 303 34 113 99 216 182 289 53 47 164 105
239 125 67 18 206 19 280 1z m-3158 -529 c5 -34 4 -38 -13 -34 -21 4 -29 28
-19 65 8 34 24 18 32 -31z m2363 -150 c0 -77 88 -258 168 -343 49 -52 134
-117 179 -137 23 -10 40 -23 37 -27 -7 -12 -1314 -12 -1314 0 0 6 26 24 58 41
64 34 166 128 213 196 60 88 109 206 109 267 l0 27 275 0 275 0 0 -24z m2683
-180 c18 -7 43 -25 56 -40 14 -14 29 -26 35 -26 6 0 27 17 48 37 36 35 43 38
101 38 50 0 68 -5 92 -23 36 -29 64 -77 65 -114 0 -36 14 -43 92 -43 60 0 70
-3 99 -30 60 -56 74 -125 38 -184 -27 -45 -22 -60 30 -90 60 -36 84 -81 77
-150 -5 -60 -37 -102 -93 -126 -38 -16 -40 -31 -13 -85 11 -22 20 -50 20 -63
0 -42 -28 -95 -66 -123 -32 -25 -46 -28 -107 -29 l-71 0 -8 -42 c-9 -55 -22
-77 -61 -107 -57 -43 -140 -40 -190 9 -40 39 -69 44 -89 17 -25 -35 -67 -54
-118 -54 -79 0 -134 45 -146 119 -3 23 -11 47 -18 52 -6 5 -38 9 -72 8 -53 -1
-66 2 -99 27 -64 49 -81 120 -45 191 25 49 20 65 -30 88 -53 25 -80 71 -80
137 0 63 31 112 86 135 43 18 51 38 28 73 -28 41 -25 128 5 169 36 48 83 67
147 59 60 -7 66 -2 78 65 17 94 118 144 209 105z"/>
<path d="M7098 6399 c-16 -9 -18 -34 -18 -282 0 -253 1 -274 18 -288 17 -15
20 -15 33 5 11 16 15 78 19 261 l5 240 200 5 c182 5 200 7 203 23 9 44 -8 47
-232 47 -125 0 -218 -5 -228 -11z"/>
<path d="M4108 3415 c-131 -28 -243 -116 -301 -234 -28 -58 -32 -78 -35 -163
-4 -111 11 -171 63 -254 143 -225 469 -259 660 -69 80 80 125 187 125 300 0
206 -140 377 -344 421 -73 16 -93 16 -168 -1z m228 -70 c106 -50 187 -142 218
-249 75 -258 -156 -515 -421 -468 -124 22 -221 95 -278 208 -27 53 -29 69 -30
160 0 66 5 111 14 130 7 16 18 39 23 50 32 70 149 164 232 185 52 14 198 4
242 -16z"/>
<path d="M5970 3416 c-118 -27 -217 -97 -278 -198 -186 -310 71 -694 430 -641
99 14 162 46 234 118 134 133 167 324 84 492 -58 118 -166 200 -299 229 -78
16 -98 16 -171 0z m259 -86 c71 -38 138 -107 172 -177 17 -36 24 -70 27 -137
4 -79 1 -97 -23 -158 -64 -164 -235 -259 -410 -229 -156 27 -272 141 -306 300
-38 181 90 382 276 432 17 5 69 7 116 5 75 -3 94 -8 148 -36z"/>
<path d="M8270 2148 c-35 -101 -65 -189 -68 -196 -3 -10 3 -13 23 -10 27 3 31
11 95 196 l67 192 -27 0 c-27 0 -30 -6 -90 -182z"/>
<path d="M7745 2273 c-11 -2 -31 -13 -45 -24 -25 -19 -25 -19 -5 -34 11 -9 26
-12 35 -8 8 4 33 7 55 7 36 1 40 -2 43 -26 3 -21 -10 -39 -67 -94 -48 -46 -71
-75 -71 -91 0 -23 2 -23 110 -23 l110 0 0 25 c0 24 -3 25 -60 25 -33 0 -60 4
-60 8 0 4 20 28 45 52 57 56 72 97 51 138 -22 42 -75 59 -141 45z"/>
<path d="M7991 2175 c-39 -52 -71 -104 -71 -115 0 -18 6 -20 80 -20 l80 0 0
-30 c0 -27 3 -30 30 -30 27 0 30 3 30 30 0 25 4 30 25 30 34 0 37 47 3 52 -17
2 -24 11 -26 31 -3 23 -8 27 -33 27 -26 0 -29 -3 -29 -30 0 -28 -3 -30 -35
-30 -19 0 -35 4 -35 8 0 5 27 45 60 90 l60 82 -34 0 c-31 0 -40 -8 -105 -95z"/>
<path d="M8390 2220 c0 -49 1 -50 30 -50 25 0 30 4 30 25 0 23 4 25 45 25 32
0 45 -4 45 -14 0 -7 -20 -57 -45 -110 -25 -54 -45 -102 -45 -107 0 -5 15 -9
33 -9 31 0 33 3 85 121 28 66 52 131 52 144 l0 25 -115 0 -115 0 0 -50z"/>
</g>
</svg>
