<?xml version="1.0" standalone="no"?>
<!DOCTYPE svg PUBLIC "-//W3C//DTD SVG 20010904//EN"
 "http://www.w3.org/TR/2001/REC-SVG-20010904/DTD/svg10.dtd">
<svg version="1.0" xmlns="http://www.w3.org/2000/svg"
 width="1080.000000pt" height="1080.000000pt" viewBox="0 0 1080.000000 1080.000000"
 preserveAspectRatio="xMidYMid meet">

<g transform="translate(0.000000,1080.000000) scale(0.100000,-0.100000)"
fill="#000000" stroke="none">
<path d="M3500 8258 c-321 -67 -517 -245 -595 -540 l-18 -67 -416 -3 c-411 -3
-417 -3 -475 -27 -73 -29 -164 -117 -187 -182 -39 -104 -40 -121 -37 -374 4
-246 10 -295 43 -361 30 -61 95 -123 163 -156 l67 -33 341 -3 342 -3 81 -83
81 -84 0 -1743 c0 -1710 0 -1745 20 -1814 44 -156 134 -292 252 -380 37 -27
64 -53 62 -57 -3 -4 -276 -8 -608 -8 -570 0 -604 -1 -619 -18 -16 -17 -15 -20
3 -40 l21 -22 3418 0 c3404 0 3418 0 3441 20 22 19 23 21 5 40 -18 19 -31 20
-490 20 -259 0 -475 3 -479 7 -3 4 9 23 28 42 38 40 76 106 76 133 0 10 5 18
10 18 6 0 10 6 10 14 0 8 12 17 28 20 84 20 193 110 232 193 68 144 42 305
-69 423 -66 70 -142 103 -253 108 -49 3 -88 6 -88 7 0 2 -9 48 -20 103 -10 55
-24 130 -30 168 -6 38 -24 93 -40 124 -16 32 -33 86 -39 130 -15 98 -35 150
-89 233 -38 59 -108 127 -159 156 -13 7 -12 15 10 56 20 37 24 52 16 67 -19
35 -52 10 -98 -70 -6 -10 -23 -9 -87 8 -172 46 -353 -7 -489 -144 -99 -100
-133 -167 -154 -307 -6 -39 -20 -72 -44 -105 -40 -56 -67 -137 -67 -201 0 -34
-6 -49 -25 -67 -29 -27 -31 -43 -10 -66 13 -15 13 -27 0 -111 -15 -94 -37
-238 -55 -359 -5 -36 -17 -110 -26 -164 -24 -144 -21 -223 10 -285 14 -28 39
-66 56 -84 16 -19 27 -37 23 -41 -10 -10 -581 -7 -588 4 -3 5 9 17 27 26 62
32 190 174 230 254 66 132 70 154 79 400 4 124 10 244 14 266 4 27 3 44 -4 48
-16 10 -15 1434 0 1487 7 21 27 53 46 71 l34 33 347 5 347 5 58 29 c73 36 156
125 180 192 15 42 17 88 17 346 0 297 0 298 -26 355 -42 96 -123 167 -224 197
-45 13 -114 16 -409 16 -196 0 -362 4 -369 8 -10 7 -12 130 -10 583 l3 574 45
5 c40 4 45 8 45 29 0 18 -8 27 -30 34 -62 20 -63 21 -68 225 -4 172 -6 192
-30 255 -38 99 -81 170 -146 239 -117 127 -232 188 -429 227 -68 14 -2146 13
-2212 -1z m2281 -103 c210 -60 359 -204 433 -420 20 -58 20 -83 24 -851 2
-635 0 -793 -10 -801 -7 -5 -38 -17 -69 -26 -123 -37 -232 -169 -241 -292 -2
-17 -5 356 -8 828 -4 748 -7 859 -20 867 -16 11 -2537 14 -2564 4 -14 -6 -16
-81 -16 -752 l0 -745 -24 -31 c-25 -34 -48 -97 -66 -186 -21 -100 -55 -212
-81 -262 -5 -9 -12 -35 -15 -58 -4 -22 -10 -40 -15 -40 -5 0 -9 -29 -9 -65 0
-36 4 -65 9 -65 4 0 11 -15 14 -34 10 -64 60 -150 124 -215 l63 -64 0 -866 c0
-661 3 -870 12 -879 9 -9 309 -12 1290 -12 1253 0 1277 0 1288 19 7 13 10 360
11 1048 1 565 5 1008 9 983 12 -73 50 -141 112 -202 32 -32 63 -58 68 -58 6 0
10 -32 10 -72 0 -90 23 -127 86 -137 l39 -6 0 -955 0 -955 -23 -69 c-13 -38
-32 -86 -42 -106 -63 -124 -195 -242 -325 -291 -101 -38 -106 -38 -1240 -38
-1142 0 -1133 -1 -1245 40 -122 44 -261 175 -321 304 -73 157 -69 40 -69 1933
l0 1699 30 38 c27 33 30 45 30 104 l0 67 60 52 c70 62 108 122 126 201 19 78
19 504 0 582 -23 102 -94 193 -184 239 -23 12 -44 26 -47 30 -8 13 21 125 46
178 72 153 199 266 364 324 l80 28 1126 0 c984 0 1132 -2 1180 -15z m-2824
-601 c70 -24 131 -78 162 -143 26 -55 26 -60 29 -311 3 -218 1 -263 -14 -312
-21 -70 -59 -118 -130 -163 l-54 -35 0 -79 c0 -51 -4 -82 -12 -87 -8 -5 -41
23 -90 77 l-79 84 -357 5 c-325 5 -360 7 -392 24 -63 34 -105 73 -130 123 -25
48 -25 49 -25 348 l0 300 33 52 c39 61 81 95 142 116 68 24 847 25 917 1z
m2881 -2227 l2 -2067 -1232 2 -1233 3 -3 829 -2 828 27 -7 c16 -4 65 -9 110
-12 100 -6 193 18 273 72 l52 35 139 0 c137 0 139 0 188 30 46 29 63 48 101
110 23 39 21 272 -3 323 -31 65 -98 120 -189 156 -16 6 -28 18 -28 28 0 9 -14
32 -32 50 l-32 33 47 0 c26 0 55 4 65 9 9 4 38 18 64 29 96 43 132 130 127
300 -4 100 -7 113 -34 158 -19 30 -49 60 -79 79 -49 30 -50 30 -200 30 -166 0
-184 -5 -245 -66 -49 -49 -71 -103 -71 -178 0 -64 0 -65 -82 -187 -46 -68 -87
-122 -93 -120 -5 1 -13 20 -17 42 -10 62 -26 93 -58 121 l-30 25 0 693 c0 381
3 701 6 709 6 15 121 16 1233 14 l1226 -3 3 -2068z m-1695 938 c61 -42 77 -86
77 -213 0 -126 -13 -168 -62 -205 -46 -34 -91 -47 -160 -47 -55 0 -63 3 -108
41 l-49 41 33 46 c61 85 70 111 56 151 -7 20 -26 51 -43 69 -26 27 -38 32 -75
32 -28 0 -54 -7 -73 -21 -16 -11 -29 -15 -29 -9 0 27 43 92 77 115 36 24 44
25 178 25 134 0 142 -1 178 -25z m-294 -171 c35 -45 39 -37 -137 -294 -36 -52
-85 -123 -109 -158 -46 -68 -51 -83 -30 -101 20 -16 33 -1 112 114 77 113 113
155 132 155 19 0 53 -37 53 -58 0 -10 -30 -60 -68 -112 -37 -52 -83 -119 -101
-148 -31 -49 -33 -55 -18 -70 15 -14 18 -14 37 3 11 10 48 59 81 109 78 115
107 146 136 146 33 0 58 -42 42 -72 -13 -24 -106 -161 -146 -214 -13 -17 -23
-41 -23 -53 0 -18 5 -22 27 -19 21 2 40 23 93 101 86 125 97 137 131 137 31 0
54 -30 46 -59 -8 -33 -260 -388 -307 -432 -76 -73 -165 -109 -268 -109 -82 0
-134 15 -199 58 -92 60 -149 156 -159 271 -6 78 3 125 45 241 31 84 54 168 66
243 9 53 42 126 60 133 8 4 21 1 29 -5 21 -18 37 -122 30 -194 -5 -54 -4 -65
10 -70 19 -8 43 0 49 16 6 16 282 416 306 445 26 29 55 28 80 -4z m3277 -119
c60 -30 108 -75 137 -129 21 -39 22 -52 22 -336 0 -286 -1 -296 -22 -337 -28
-51 -83 -106 -128 -127 -64 -31 -140 -37 -450 -35 l-309 1 -76 -82 c-69 -74
-109 -99 -111 -67 0 6 0 38 1 69 2 78 -5 95 -48 117 -47 24 -93 74 -123 131
-24 44 -24 50 -24 330 l0 285 29 52 c35 64 70 98 133 129 l48 23 436 1 435 0
50 -25z m-2919 -518 c13 -24 17 -57 18 -137 0 -122 -5 -147 -41 -190 -46 -54
-91 -70 -199 -70 -52 0 -95 3 -95 6 0 3 35 56 77 118 149 215 203 297 203 307
0 17 19 0 37 -34z m3127 -1249 c22 -6 45 -15 49 -19 5 -3 -8 -30 -28 -58 -41
-57 -42 -85 -5 -89 20 -2 32 6 58 43 17 25 32 54 32 65 0 11 4 20 8 20 19 0
130 -100 163 -148 36 -51 87 -187 76 -199 -7 -6 -69 16 -78 29 -8 11 -748 11
-762 0 -7 -5 -22 -13 -34 -16 -20 -6 -23 -4 -23 20 0 15 16 60 36 101 58 121
167 213 294 248 59 16 162 18 214 3z m302 -445 c77 -41 126 -116 139 -210 4
-26 13 -80 21 -120 8 -40 14 -77 14 -83 0 -7 -184 -10 -580 -10 l-580 0 0 25
c0 55 32 243 47 279 18 41 110 123 146 131 12 2 31 6 42 9 11 2 175 4 365 3
334 -2 346 -3 386 -24z m92 -543 c-83 -71 -138 -190 -138 -296 l0 -54 -506 0
-507 0 6 48 c6 43 27 182 42 277 4 22 8 46 11 53 3 9 126 12 571 12 l568 0
-47 -40z m355 -9 c240 -103 249 -434 15 -550 -112 -56 -237 -37 -334 51 -156
143 -122 392 68 487 51 26 73 31 134 31 49 0 87 -6 117 -19z m-962 -421 l498
0 34 -52 c59 -93 133 -145 240 -169 32 -7 60 -16 63 -20 8 -13 -32 -84 -67
-118 -69 -69 -35 -66 -644 -66 l-550 0 -41 27 c-56 36 -89 78 -109 138 -17 51
-14 103 11 237 4 22 28 34 52 27 8 -2 238 -4 513 -4z"/>
<path d="M4557 8058 c-21 -17 -38 -63 -30 -85 22 -65 91 -83 137 -37 33 34 34
73 1 108 -27 29 -79 35 -108 14z m77 -34 c22 -21 20 -47 -4 -69 -18 -17 -21
-17 -45 -1 -35 23 -32 65 5 79 24 9 28 8 44 -9z"/>
<path d="M3834 7848 c-16 -4 -43 -21 -59 -38 -59 -62 -29 -172 55 -200 50 -16
85 -7 127 35 29 29 33 39 33 85 0 47 -4 56 -34 85 -38 35 -75 45 -122 33z m84
-64 c35 -24 31 -86 -7 -113 -37 -27 -54 -26 -85 2 -35 31 -39 57 -16 95 16 26
26 32 53 32 18 0 43 -7 55 -16z"/>
<path d="M4175 7852 c-76 -25 -109 -116 -70 -192 31 -60 32 -60 502 -60 406 0
430 1 460 20 45 27 56 53 51 123 -4 51 -9 63 -33 83 -15 12 -41 25 -58 28 -40
8 -827 6 -852 -2z m877 -69 c26 -23 24 -87 -4 -113 -21 -19 -33 -20 -442 -20
-417 0 -420 0 -443 22 -27 25 -30 73 -7 106 l15 22 431 0 c387 0 433 -2 450
-17z"/>
<path d="M4569 3101 c-81 -17 -163 -85 -200 -166 -24 -52 -24 -164 -1 -222 22
-53 81 -117 136 -146 59 -31 193 -31 252 0 55 29 114 93 136 146 26 64 23 170
-6 232 -52 114 -191 182 -317 156z m149 -67 c43 -18 85 -55 115 -104 34 -54
31 -160 -6 -223 -33 -55 -82 -91 -149 -108 -91 -22 -196 24 -245 108 -24 41
-28 59 -28 118 1 77 17 115 72 167 59 56 164 75 241 42z"/>
<path d="M4603 3000 c-40 -9 -94 -49 -124 -91 -29 -41 -37 -120 -15 -138 13
-11 19 -11 31 -1 8 7 15 20 15 29 0 9 9 35 19 58 20 44 62 74 115 83 40 7 57
37 32 56 -22 15 -26 16 -73 4z"/>
<path d="M2050 7365 c-7 -9 -12 -50 -12 -106 -1 -112 5 -119 104 -119 l68 0 0
-168 c0 -117 4 -172 12 -180 15 -15 535 -17 558 -2 12 7 16 41 18 179 l3 169
75 4 c52 2 78 8 84 18 5 8 10 54 10 101 0 120 1 119 -176 119 -76 0 -144 -4
-150 -8 -7 -4 -19 -25 -28 -47 -22 -53 -39 -70 -84 -84 -35 -12 -43 -11 -81 9
-34 17 -47 32 -67 76 l-24 54 -149 0 c-118 0 -151 -3 -161 -15z m284 -94 c84
-133 248 -133 332 0 l25 40 102 -3 102 -3 0 -45 0 -45 -72 -5 c-40 -3 -77 -10
-82 -15 -6 -6 -12 -80 -13 -175 l-3 -165 -225 0 -225 0 -3 164 c-1 101 -7 170
-13 178 -8 8 -35 13 -80 13 -65 0 -69 1 -75 25 -3 14 -3 36 0 50 6 25 8 25
106 25 l100 0 24 -39z"/>
<path d="M3830 7091 c0 -5 -14 -14 -32 -20 -51 -18 -92 -56 -121 -111 -25 -48
-27 -61 -27 -169 0 -131 12 -169 71 -229 61 -62 78 -67 244 -67 165 0 183 5
244 66 55 55 65 84 69 206 5 142 -11 197 -75 260 -25 24 -53 43 -63 43 -10 0
-25 7 -34 15 -11 12 -42 15 -145 15 -72 0 -131 -4 -131 -9z m282 -66 c47 -19
95 -75 109 -127 6 -24 9 -83 7 -133 -4 -104 -20 -139 -81 -189 l-39 -31 -143
0 -143 0 -39 31 c-61 48 -83 103 -83 204 0 47 5 102 11 123 12 46 61 103 103
122 44 19 252 20 298 0z"/>
<path d="M4410 6901 c0 -10 7 -22 16 -25 9 -3 262 -6 564 -6 467 0 549 2 560
15 6 8 9 19 5 25 -4 7 -191 10 -576 10 -552 0 -569 -1 -569 -19z"/>
<path d="M4417 6703 c-4 -3 -7 -17 -7 -30 l0 -23 374 0 c336 0 374 2 380 16
16 42 2 44 -379 44 -199 0 -365 -3 -368 -7z"/>
<path d="M4432 6182 c-17 -3 -22 -9 -20 -25 l3 -22 561 -3 c497 -2 563 0 574
13 9 11 10 19 3 26 -9 9 -1062 19 -1121 11z"/>
<path d="M4417 5963 c-4 -3 -7 -15 -7 -25 0 -17 18 -18 374 -18 250 0 377 3
381 10 4 6 1 17 -5 25 -11 13 -70 15 -375 15 -199 0 -365 -3 -368 -7z"/>
<path d="M4417 5443 c-19 -18 -5 -42 26 -48 60 -11 1095 -1 1107 11 6 6 8 18
4 27 -6 16 -53 17 -568 17 -310 0 -566 -3 -569 -7z"/>
<path d="M4410 5206 c0 -47 -12 -46 380 -46 l368 0 5 22 c3 12 4 25 1 30 -3 4
-174 8 -380 8 -316 0 -374 -2 -374 -14z"/>
<path d="M3840 4871 c0 -5 -13 -12 -29 -16 -49 -11 -105 -58 -134 -114 -25
-49 -27 -62 -27 -170 0 -131 13 -172 71 -230 61 -61 79 -66 245 -66 150 0 151
0 200 30 30 19 60 49 79 79 28 46 30 57 34 163 2 91 0 124 -14 161 -26 70 -59
108 -115 134 -28 13 -50 26 -50 30 0 5 -58 8 -130 8 -73 0 -130 -4 -130 -9z
m261 -62 c40 -14 85 -53 106 -93 18 -34 29 -164 19 -228 -9 -58 -49 -120 -94
-144 -30 -16 -57 -19 -173 -19 l-137 0 -39 31 c-61 48 -83 103 -83 204 0 47 5
102 11 123 13 49 69 111 111 124 45 15 237 16 279 2z"/>
<path d="M4412 4678 l3 -23 561 -3 c483 -2 563 0 574 12 6 9 9 20 5 26 -4 7
-191 10 -576 10 l-570 0 3 -22z"/>
<path d="M4417 4483 c-4 -3 -7 -17 -7 -30 l0 -23 380 0 c359 0 380 1 380 18 0
41 -10 42 -385 42 -199 0 -365 -3 -368 -7z"/>
<path d="M3825 4121 c-43 -11 -66 -25 -102 -63 -64 -67 -73 -96 -73 -227 0
-89 4 -126 16 -152 32 -65 66 -100 127 -130 57 -27 68 -29 178 -29 65 0 120 4
124 9 3 5 19 13 36 16 45 10 113 82 132 140 23 67 23 224 0 288 -10 27 -32 64
-51 83 -58 60 -83 68 -227 70 -71 2 -143 0 -160 -5z m322 -78 c57 -45 75 -84
81 -168 8 -120 -4 -176 -45 -224 -51 -60 -85 -71 -218 -71 -129 0 -166 11
-213 64 -39 45 -52 91 -52 187 0 90 20 156 59 193 48 46 92 57 228 53 119 -3
123 -4 160 -34z"/>
<path d="M4412 3938 l3 -23 564 -3 c582 -2 580 -2 581 36 0 9 -122 12 -576 12
l-575 0 3 -22z"/>
<path d="M4423 3743 c-7 -2 -13 -13 -13 -24 0 -18 12 -19 374 -19 250 0 377 3
381 10 4 6 1 17 -5 25 -11 13 -68 15 -369 14 -196 0 -362 -3 -368 -6z"/>
<path d="M6749 5845 c-20 -13 -39 -31 -42 -39 -9 -23 -49 -20 -98 9 -24 14
-58 25 -75 25 -39 0 -95 -37 -113 -75 -14 -29 -59 -75 -73 -75 -5 0 -8 -40 -8
-89 0 -86 1 -89 25 -95 l25 -6 0 -149 c0 -143 1 -148 23 -160 16 -8 90 -11
262 -9 l240 3 3 147 3 147 29 21 c29 20 30 25 30 93 0 85 -7 117 -26 117 -9 0
-14 11 -14 30 0 40 -25 76 -72 106 -47 30 -73 30 -119 -1z m116 -71 c29 -31
32 -70 9 -102 -22 -31 -58 -44 -90 -32 -21 9 -25 15 -21 37 3 14 0 39 -5 55
-22 62 59 93 107 42z m-299 -6 c9 -15 9 -133 -1 -147 -8 -15 -46 -13 -66 2
-63 49 -38 157 38 157 12 0 25 -5 29 -12z m134 -59 c15 -27 -5 -51 -39 -47
-26 3 -38 26 -27 54 8 22 54 17 66 -7z m-256 -114 c30 -28 34 -36 22 -41 -9
-3 -27 -3 -41 0 -21 5 -25 12 -25 41 0 19 2 35 4 35 2 0 20 -16 40 -35z m473
-33 c-13 -17 -119 -12 -125 6 -2 8 7 12 30 12 18 0 47 9 63 20 l30 20 6 -23
c3 -12 1 -28 -4 -35z m-192 17 c0 -22 -4 -24 -57 -27 -46 -2 -58 0 -58 12 0
19 15 28 60 37 48 9 55 6 55 -22z m-183 -200 c2 -67 1 -124 -2 -129 -8 -12
-46 -21 -64 -14 -14 5 -16 24 -16 128 0 68 3 126 7 129 3 4 21 7 39 7 l33 0 3
-121z m186 -11 c3 -127 2 -127 -21 -133 -13 -4 -41 -5 -63 -3 l-39 3 -3 119
c-1 66 0 126 3 133 3 10 21 13 62 11 l58 -3 3 -127z m136 116 c3 -9 6 -64 6
-123 0 -112 -6 -131 -45 -131 -39 0 -45 19 -45 131 0 59 3 114 6 123 8 22 70
22 78 0z"/>
<path d="M7237 3978 c-48 -59 -53 -98 -14 -98 40 0 116 102 95 127 -19 23 -46
14 -81 -29z"/>
<path d="M7955 3078 c-2 -13 -6 -41 -7 -63 l-3 -40 -49 -3 c-28 -2 -59 -11
-72 -21 -21 -17 -21 -18 -3 -29 10 -7 38 -12 62 -12 54 0 67 -13 67 -69 0 -26
8 -55 16 -66 l15 -20 12 20 c7 11 14 45 17 75 l5 55 63 3 c57 3 62 5 62 26 0
27 -21 36 -87 36 l-43 0 0 49 c0 27 -3 56 -6 65 -9 24 -43 20 -49 -6z"/>
<path d="M7065 7657 c-100 -34 -123 -47 -172 -94 -84 -82 -105 -139 -111 -300
-2 -73 -7 -133 -9 -133 -3 0 -28 12 -55 27 -53 29 -83 24 -83 -12 0 -23 103
-87 126 -80 15 5 17 -10 22 -132 5 -135 12 -169 49 -239 17 -31 89 -102 123
-122 16 -9 20 -22 20 -80 0 -78 20 -119 67 -136 46 -16 80 2 159 84 l75 79
316 1 c353 0 393 6 482 65 57 38 105 97 133 166 16 39 18 78 18 349 0 303 0
305 -24 355 -14 28 -50 75 -81 105 -53 51 -79 66 -181 98 -46 16 -830 15 -874
-1z m873 -79 c77 -19 138 -65 188 -143 17 -28 19 -53 22 -325 4 -338 2 -349
-76 -428 -79 -80 -93 -82 -487 -82 l-340 0 -81 -87 c-102 -111 -114 -109 -114
11 0 85 0 86 -31 101 -52 28 -111 88 -135 140 -23 48 -24 58 -24 320 0 302 5
332 68 406 36 42 72 65 137 85 55 17 805 19 873 2z"/>
<path d="M7256 7352 c-3 -5 -5 -100 -4 -213 0 -126 -4 -215 -11 -232 -6 -16
-11 -57 -11 -91 0 -76 -6 -73 151 -82 l107 -7 17 27 18 27 11 -23 c11 -22 17
-23 107 -20 51 1 109 5 128 8 l34 5 -8 137 c-4 75 -10 211 -13 302 l-7 165
-257 3 c-141 1 -259 -1 -262 -6z m464 -102 l0 -50 -205 0 -205 0 0 50 0 50
205 0 205 0 0 -50z m-239 -131 c3 -5 2 -39 -2 -76 -4 -38 -10 -112 -14 -167
l-7 -98 -79 4 c-43 2 -83 8 -88 13 -10 10 10 313 22 332 7 11 160 3 168 -8z
m246 8 c7 -7 22 -188 23 -268 l0 -66 -73 -7 c-105 -9 -107 -8 -107 78 0 39 -3
114 -6 167 -6 88 -5 97 11 100 26 6 146 2 152 -4z"/>
<path d="M6462 7261 c-27 -17 -7 -46 51 -74 60 -29 83 -29 93 -2 8 21 -9 40
-61 64 -49 23 -63 25 -83 12z"/>
<path d="M7380 6485 c-13 -16 -14 -15 25 -86 33 -60 85 -74 85 -23 0 28 -66
124 -85 124 -7 0 -18 -7 -25 -15z"/>
<path d="M2546 6359 c-14 -17 -26 -39 -26 -49 0 -10 12 -32 26 -49 36 -43 91
-43 134 -1 42 41 40 55 -14 110 -32 32 -89 27 -120 -11z"/>
<path d="M7487 6314 c-12 -13 -7 -38 18 -91 20 -44 29 -53 50 -53 38 0 40 21
8 87 -27 55 -56 77 -76 57z"/>
<path d="M2452 6203 c-41 -37 -188 -304 -273 -498 -19 -44 -96 -253 -109 -295
-7 -25 -18 -63 -25 -85 -33 -106 -77 -318 -101 -490 -21 -146 -24 -644 -6
-770 64 -432 144 -703 303 -1032 94 -195 250 -451 322 -530 26 -29 63 -30 78
-2 9 18 6 29 -22 68 -217 307 -349 562 -455 881 -54 162 -81 275 -123 515 -20
116 -43 449 -36 545 10 157 25 321 36 395 14 95 59 301 79 370 5 17 17 55 25
85 9 30 20 64 25 75 4 11 16 43 25 70 9 28 24 66 32 85 8 19 18 44 23 55 51
123 134 288 209 413 65 111 72 135 42 152 -25 13 -25 13 -49 -7z"/>
<path d="M7577 6134 c-13 -13 -7 -62 13 -109 16 -37 24 -46 41 -43 41 6 44 30
13 94 -27 55 -50 75 -67 58z"/>
<path d="M7640 5935 c-10 -12 -10 -25 0 -63 18 -66 35 -91 59 -85 29 7 31 25
13 84 -26 82 -44 98 -72 64z"/>
<path d="M7690 5735 c-15 -18 2 -121 23 -143 16 -16 45 -6 49 16 4 20 -14 112
-25 130 -11 16 -32 15 -47 -3z"/>
<path d="M7720 5535 c-9 -11 -10 -33 -4 -82 8 -64 11 -68 34 -68 24 0 25 3 28
68 3 68 -7 97 -33 97 -7 0 -18 -7 -25 -15z"/>
<path d="M7732 5338 c-14 -14 -16 -136 -3 -156 5 -8 17 -12 27 -10 17 3 19 13
19 88 0 68 -3 85 -15 88 -9 1 -21 -3 -28 -10z"/>
<path d="M7725 5126 c-12 -8 -19 -32 -22 -79 -5 -57 -3 -68 12 -73 29 -12 49
10 58 62 13 79 -8 119 -48 90z"/>
<path d="M7692 4917 c-21 -24 -35 -116 -22 -132 17 -20 48 -19 53 3 25 94 29
113 24 127 -8 18 -41 20 -55 2z"/>
<path d="M7643 4721 c-9 -11 -22 -42 -29 -68 -11 -41 -10 -51 3 -65 23 -26 48
-7 67 51 21 64 20 78 -4 91 -16 8 -23 7 -37 -9z"/>
<path d="M7589 4543 c-9 -2 -29 -32 -43 -65 -27 -61 -27 -62 -7 -81 11 -11 24
-16 31 -12 15 9 60 104 60 126 0 21 -20 37 -41 32z"/>
<path d="M7943 4280 c-21 -36 -26 -36 -64 -9 -29 20 -59 20 -59 0 0 -6 14 -20
30 -33 33 -24 38 -49 15 -68 -18 -15 -20 -46 -3 -56 6 -4 23 7 39 27 l28 34
29 -17 c62 -37 86 -9 31 35 l-32 25 22 36 c12 19 20 40 16 46 -12 19 -34 10
-52 -20z"/>
<path d="M7970 3993 c-24 -9 -70 -55 -70 -70 0 -7 -4 -13 -10 -13 -12 0 -14
-47 -2 -52 4 -1 14 -16 22 -33 9 -16 29 -36 45 -44 17 -8 32 -18 33 -23 5 -11
42 -10 42 2 0 5 11 12 25 16 72 18 91 136 31 193 -24 23 -87 36 -116 24z m94
-64 c31 -37 32 -42 5 -85 -17 -29 -26 -34 -58 -34 -48 0 -75 28 -74 76 2 71
81 98 127 43z"/>
<path d="M6425 3389 c-52 -25 -67 -42 -60 -61 11 -27 33 -29 88 -7 62 24 81
44 66 70 -12 24 -43 23 -94 -2z"/>
</g>
</svg>
