<?xml version="1.0" standalone="no"?>
<!DOCTYPE svg PUBLIC "-//W3C//DTD SVG 20010904//EN"
 "http://www.w3.org/TR/2001/REC-SVG-20010904/DTD/svg10.dtd">
<svg version="1.0" xmlns="http://www.w3.org/2000/svg"
 width="1080.000000pt" height="1080.000000pt" viewBox="0 0 1080.000000 1080.000000"
 preserveAspectRatio="xMidYMid meet">

<g transform="translate(0.000000,1080.000000) scale(0.100000,-0.100000)"
fill="#000000" stroke="none">
<path d="M4655 8193 c-391 -22 -811 -231 -1075 -535 -152 -175 -274 -398 -334
-608 -33 -117 -29 -148 21 -164 27 -9 60 21 69 61 14 67 69 224 102 293 187
393 528 678 949 794 214 58 398 66 656 26 75 -11 101 -4 112 30 4 12 0 31 -9
44 -12 19 -31 26 -108 39 -97 17 -280 26 -383 20z"/>
<path d="M5360 8132 c0 -5 -11 -14 -25 -20 -59 -27 -50 -115 16 -142 28 -12
36 -11 68 6 63 34 65 111 3 139 -12 5 -22 13 -22 17 0 5 -9 8 -20 8 -11 0 -20
-4 -20 -8z"/>
<path d="M5974 7820 c-55 -31 -89 -75 -115 -150 -18 -50 -22 -52 -104 -27
-251 75 -359 101 -388 93 -36 -9 -93 -61 -101 -91 -4 -14 -11 -25 -16 -25 -6
0 -10 -9 -10 -20 0 -11 4 -20 9 -20 5 0 12 -12 16 -27 3 -16 14 -36 22 -45 18
-20 24 -80 48 -433 9 -132 18 -250 21 -262 4 -21 12 -24 184 -73 19 -6 91 -26
160 -46 69 -20 139 -40 155 -44 17 -4 57 -15 90 -25 33 -9 74 -20 90 -25 17
-4 72 -20 122 -34 51 -15 101 -25 110 -22 10 3 30 25 45 48 14 24 95 144 180
268 143 209 156 225 188 231 88 14 134 64 134 144 0 61 -29 106 -83 128 -31
14 -194 61 -344 102 -66 17 -74 27 -59 68 28 78 5 174 -57 240 -54 58 -98 77
-178 77 -57 0 -76 -5 -119 -30z m204 -34 c35 -18 75 -62 97 -105 13 -26 16
-49 12 -89 -6 -58 -20 -82 -47 -82 -15 0 -204 51 -270 73 -8 3 -27 8 -42 11
-34 8 -36 32 -9 91 34 74 97 115 179 115 29 0 65 -6 80 -14z m-752 -105 c16
-5 56 -17 89 -26 134 -38 152 -43 195 -55 66 -18 141 -39 175 -49 78 -23 221
-63 285 -81 25 -7 63 -18 85 -25 22 -7 85 -25 140 -40 55 -15 136 -38 180 -50
44 -13 92 -26 106 -29 70 -15 101 -95 58 -150 -22 -29 -67 -34 -123 -16 -32
10 -211 62 -281 81 -22 7 -60 17 -85 24 -25 7 -70 20 -100 28 -60 17 -206 59
-285 82 -27 8 -75 21 -105 29 -30 8 -80 22 -110 31 -30 9 -64 19 -75 22 -182
50 -222 65 -242 89 -37 41 -23 102 28 130 29 16 29 16 65 5z m71 -262 c60 -17
140 -39 178 -50 123 -34 167 -47 295 -83 69 -20 168 -48 220 -62 52 -14 113
-32 135 -39 22 -7 87 -26 144 -41 57 -16 105 -34 108 -41 3 -6 -71 -123 -164
-258 -144 -210 -171 -245 -188 -240 -11 4 -33 10 -50 15 -95 26 -153 42 -265
74 -69 20 -168 48 -220 62 -52 15 -106 30 -120 34 -14 5 -52 16 -85 26 -33 9
-66 22 -72 27 -9 6 -13 38 -13 91 0 44 -4 122 -10 171 -18 177 -23 345 -11
345 6 0 59 -14 118 -31z"/>
<path d="M5570 7278 c-8 -16 -8 -82 -3 -208 7 -163 10 -185 25 -188 28 -5 31
35 22 231 -6 128 -13 182 -21 184 -7 3 -17 -6 -23 -19z"/>
<path d="M6201 6935 c-61 -97 -101 -171 -97 -180 12 -33 31 -17 85 70 63 100
111 176 132 207 25 35 25 68 1 68 -13 0 -49 -49 -121 -165z"/>
<path d="M7718 6680 c-62 -23 -106 -52 -144 -92 -42 -44 -84 -113 -84 -137 0
-20 -26 -41 -45 -36 -5 2 -37 8 -70 15 -33 6 -87 18 -120 25 -33 8 -87 19
-120 26 -33 6 -85 17 -115 24 -30 7 -72 16 -92 19 -21 4 -38 11 -38 16 0 13
-88 13 -103 -1 -7 -5 -26 -19 -43 -29 -74 -43 -83 -68 -155 -425 -11 -55 -24
-108 -29 -117 -17 -30 -11 -74 17 -128 43 -83 73 -98 298 -144 44 -9 98 -21
120 -26 22 -5 72 -16 110 -24 39 -8 126 -28 195 -43 69 -15 157 -27 197 -27
65 -1 74 2 110 30 64 52 73 74 118 302 8 40 17 77 20 82 3 6 35 10 71 10 35 0
72 4 82 8 9 5 43 21 75 37 71 34 140 109 164 176 10 27 21 49 25 49 5 0 8 36
8 80 0 44 -3 80 -8 80 -4 0 -15 22 -25 50 -41 116 -200 222 -328 219 -24 0
-65 -9 -91 -19z m170 -52 c102 -25 177 -99 211 -207 43 -135 -53 -305 -195
-347 -138 -40 -271 14 -339 138 -26 47 -30 63 -29 138 0 98 13 130 78 198 76
80 168 107 274 80z m-953 -148 c157 -35 377 -82 405 -87 104 -18 120 -25 120
-49 0 -13 5 -24 10 -24 6 0 10 -10 10 -21 0 -20 -4 -21 -47 -16 -27 3 -91 15
-143 27 -52 11 -113 25 -135 29 -22 5 -76 17 -120 26 -44 9 -98 21 -120 25
-189 37 -204 45 -158 78 44 31 80 34 178 12z m-71 -136 c66 -14 141 -29 166
-34 25 -5 77 -16 115 -25 72 -16 185 -40 265 -56 67 -14 96 -28 108 -53 19
-42 75 -97 130 -128 l53 -31 -6 -41 c-4 -22 -12 -47 -19 -54 -13 -13 -8 -14
-246 37 -80 18 -165 36 -190 41 -25 5 -76 16 -115 25 -38 9 -93 20 -122 25
-28 5 -68 13 -90 19 -21 5 -65 15 -98 21 -105 21 -165 40 -165 53 1 7 5 32 10
57 6 25 14 69 20 99 10 59 26 85 48 76 8 -3 69 -17 136 -31z m-99 -299 c39 -9
113 -24 165 -35 265 -54 373 -79 382 -88 7 -7 0 -15 -24 -25 -46 -19 -68 -52
-68 -102 1 -65 45 -105 117 -105 21 -1 49 -7 63 -15 42 -24 77 -18 117 19 32
29 38 41 38 75 0 46 -31 94 -64 99 -11 2 -21 8 -21 14 0 18 187 -19 194 -39 9
-23 -25 -136 -51 -171 -13 -17 -38 -39 -55 -48 -39 -20 -66 -18 -283 29 -38 8
-124 27 -190 41 -66 14 -151 33 -190 41 -38 9 -94 20 -122 26 -126 24 -168 66
-168 164 1 33 7 80 14 104 14 49 4 48 146 16z m665 -151 c18 -18 3 -19 -52 -2
-27 8 -35 14 -26 20 16 10 59 1 78 -18z m-81 -33 c12 -8 12 -14 0 -43 -8 -18
-14 -44 -14 -58 0 -32 -27 -38 -54 -11 -37 37 -22 95 29 114 21 8 23 8 39 -2z
m139 -37 c27 -18 30 -69 5 -96 -17 -19 -83 -26 -83 -8 0 6 7 22 16 35 10 15
14 34 10 48 -9 39 13 49 52 21z"/>
<path d="M7800 6555 c0 -18 -7 -26 -25 -31 -33 -8 -75 -59 -75 -91 0 -30 50
-83 79 -83 18 0 21 -6 21 -41 0 -44 0 -45 -67 -24 -16 5 -23 2 -28 -14 -9 -29
-2 -36 50 -51 37 -10 45 -17 45 -36 0 -17 6 -24 20 -24 14 0 20 7 20 24 0 19
8 27 35 36 41 13 75 53 75 87 0 31 -41 72 -80 79 -27 6 -30 10 -30 45 0 42 9
47 54 29 14 -5 26 -6 26 -2 0 4 3 17 6 29 5 20 1 24 -40 34 -39 9 -46 15 -46
35 0 17 -6 24 -20 24 -15 0 -20 -7 -20 -25z m0 -116 c0 -20 -4 -29 -12 -27
-18 6 -22 39 -6 49 18 12 18 12 18 -22z m64 -115 c29 -11 14 -54 -20 -54 -2 0
-4 14 -4 30 0 32 1 33 24 24z"/>
<path d="M6704 5975 c-10 -25 -3 -27 126 -55 25 -5 110 -23 188 -40 79 -16
148 -28 153 -24 25 15 4 32 -58 47 -79 18 -245 54 -318 68 -27 5 -58 12 -68
15 -10 3 -20 -1 -23 -11z"/>
<path d="M6660 5881 c0 -16 27 -31 76 -41 27 -5 114 -24 194 -41 198 -43 223
-46 218 -23 -3 19 -18 25 -133 49 -125 26 -217 46 -256 56 -46 11 -99 12 -99
0z"/>
<path d="M5375 6562 c-6 -5 -39 -14 -75 -21 -109 -21 -141 -28 -265 -55 -66
-14 -185 -40 -265 -57 -80 -17 -165 -35 -190 -40 -25 -4 -76 -15 -115 -24 -38
-8 -104 -22 -145 -30 -41 -8 -81 -21 -89 -29 -15 -15 -10 -47 44 -291 19 -89
45 -208 55 -260 4 -22 22 -105 39 -185 17 -80 43 -199 57 -265 73 -350 63
-319 102 -323 17 -2 75 7 129 19 54 12 116 25 138 29 22 4 65 13 95 19 56 12
83 18 205 46 39 9 90 18 115 20 48 4 91 13 205 39 39 9 93 21 120 26 28 4 75
15 105 24 106 29 126 34 255 62 72 15 136 32 143 38 8 5 11 19 9 30 -16 64
-41 175 -64 276 -50 231 -50 230 -11 230 13 0 31 7 41 14 18 14 24 56 8 56 -5
0 -12 19 -16 43 -10 59 -42 188 -49 195 -3 3 -15 6 -27 7 -15 1 -27 16 -44 60
-46 112 -128 165 -237 150 -43 -6 -59 -15 -105 -60 -30 -29 -56 -48 -58 -41
-4 14 -30 135 -46 211 -15 76 -40 108 -64 87z m12 -127 c26 -110 43 -194 43
-209 0 -8 -11 -23 -24 -32 -23 -15 -27 -14 -69 10 -52 31 -144 36 -195 10 -70
-34 -122 -128 -126 -223 -1 -30 -5 -36 -33 -43 -24 -6 -33 -14 -33 -29 0 -22
23 -131 47 -226 l16 -63 46 0 46 0 18 -83 c11 -45 26 -113 34 -152 8 -38 19
-83 23 -100 15 -54 22 -113 13 -118 -4 -3 -53 -14 -108 -26 -55 -11 -165 -34
-245 -51 -257 -54 -292 -61 -295 -58 -3 3 -42 174 -55 243 -11 54 -36 175 -55
260 -9 39 -20 90 -24 115 -5 25 -23 110 -40 190 -54 248 -85 409 -80 415 3 3
28 9 55 15 27 5 114 23 194 41 80 17 156 33 170 36 14 2 52 10 85 18 33 7 87
18 120 25 33 6 87 18 120 25 33 8 96 21 140 30 44 9 94 20 110 25 17 5 43 8
60 7 27 -2 31 -6 42 -52z m376 -150 c56 -39 100 -139 65 -149 -62 -18 -219
-47 -227 -41 -6 3 -11 12 -11 19 0 7 -11 23 -25 36 -30 28 -31 45 -5 88 44 72
134 93 203 47z m-482 -121 c44 -18 43 -14 23 -99 -10 -43 -20 -53 -67 -60 -23
-4 -63 -13 -89 -20 -25 -7 -49 -11 -52 -8 -3 4 -6 26 -6 51 0 59 31 109 84
133 50 23 56 23 107 3z m219 -39 c18 -9 30 -24 30 -35 0 -20 -29 -31 -117 -45
-41 -6 -43 -5 -43 17 0 27 16 50 45 66 28 16 51 15 85 -3z m433 -102 c29 -124
29 -124 -28 -139 -27 -7 -78 -19 -112 -28 -84 -21 -102 -20 -112 7 -12 32 -35
166 -29 172 2 3 27 9 54 15 27 6 76 16 109 24 103 24 100 25 118 -51z m-335
-40 c5 -21 14 -59 20 -86 20 -81 37 -70 -176 -117 -30 -7 -57 -9 -61 -4 -8 10
-28 89 -37 150 l-6 40 79 18 c43 10 89 22 103 27 54 17 69 11 78 -28z m-295
-127 c11 -54 15 -92 9 -98 -8 -8 -69 -23 -196 -48 -30 -6 -53 -7 -59 -1 -9 9
-38 127 -41 165 -1 21 19 29 154 60 111 25 112 25 133 -78z m587 -81 c4 -16
12 -55 19 -85 19 -87 40 -180 56 -251 8 -36 15 -71 15 -78 0 -17 -55 -38 -122
-46 -54 -7 -57 -6 -62 16 -11 52 -58 269 -77 353 -11 48 -18 90 -16 93 11 11
106 31 141 29 36 -1 41 -4 46 -31z m-241 -37 c8 -20 70 -292 91 -401 9 -46 4
-50 -101 -72 -140 -30 -137 -30 -148 -4 -5 13 -16 60 -25 104 -17 83 -23 110
-51 231 -25 106 -21 116 45 132 30 7 69 16 85 21 58 17 95 13 104 -11z m-314
-49 c4 -6 13 -38 20 -72 8 -34 23 -105 35 -157 11 -52 27 -124 35 -160 8 -36
11 -68 7 -72 -10 -10 -116 -38 -143 -38 -22 0 -33 22 -49 100 -7 30 -18 84
-26 120 -16 72 -32 145 -44 202 -9 47 -2 54 81 72 82 18 77 18 84 5z"/>
<path d="M8530 5848 c-20 -22 -27 -53 -12 -60 16 -7 126 -153 184 -245 88
-139 152 -277 209 -448 73 -220 113 -467 113 -710 1 -405 -92 -736 -292 -1043
-36 -55 -39 -67 -30 -88 13 -27 39 -38 68 -29 35 11 152 201 212 345 9 19 21
49 28 65 37 89 79 257 106 425 20 120 23 479 5 605 -31 224 -88 443 -160 620
-29 71 -133 271 -174 334 -66 102 -166 230 -188 242 -28 14 -46 11 -69 -13z"/>
<path d="M2434 5761 c-157 -40 -275 -200 -261 -352 7 -80 16 -108 53 -166 62
-98 180 -163 296 -163 l58 0 0 -45 c0 -25 4 -45 9 -45 5 0 12 -14 16 -30 20
-92 114 -193 208 -224 15 -5 17 -12 12 -36 -9 -42 18 -51 53 -17 21 20 42 28
87 33 146 16 276 128 300 257 4 20 11 37 16 37 5 0 9 23 9 50 0 28 -4 50 -9
50 -5 0 -12 16 -16 36 -7 42 -17 61 -62 122 -63 86 -156 132 -266 132 l-67 0
0 40 c0 22 -4 48 -9 58 -5 9 -19 42 -32 72 -29 66 -85 125 -157 163 -42 23
-69 30 -130 33 -42 2 -91 0 -108 -5z m211 -77 c51 -24 107 -78 132 -129 18
-35 35 -124 29 -148 -3 -13 -32 -42 -66 -66 -55 -38 -130 -131 -130 -160 0
-44 -122 -57 -203 -22 -61 26 -117 79 -147 138 -34 66 -36 197 -3 258 26 49
74 96 133 129 65 37 178 37 255 0z m419 -370 c57 -28 96 -68 132 -134 15 -27
19 -55 19 -125 -1 -84 -3 -93 -34 -142 -58 -93 -145 -143 -250 -143 -135 0
-251 96 -282 234 -27 121 37 252 154 312 80 42 173 41 261 -2z"/>
<path d="M2500 5625 c0 -18 -7 -26 -25 -31 -33 -8 -75 -59 -75 -91 0 -30 50
-83 79 -83 18 0 21 -6 21 -41 0 -44 0 -45 -67 -24 -16 5 -23 2 -28 -14 -9 -29
-2 -36 50 -51 37 -10 45 -17 45 -36 0 -17 6 -24 20 -24 14 0 20 7 20 24 0 19
8 27 35 36 41 13 75 53 75 87 0 31 -41 72 -80 79 -27 6 -30 10 -30 45 0 42 9
47 54 29 14 -5 26 -6 26 -2 0 4 3 17 6 29 5 20 1 24 -40 34 -39 9 -46 15 -46
35 0 17 -6 24 -20 24 -15 0 -20 -7 -20 -25z m0 -116 c0 -20 -4 -29 -12 -27
-18 6 -22 39 -6 49 18 12 18 12 18 -22z m64 -115 c29 -11 14 -54 -20 -54 -2 0
-4 14 -4 30 0 32 1 33 24 24z"/>
<path d="M2920 5265 c0 -18 -7 -26 -25 -31 -33 -8 -75 -59 -75 -91 0 -30 50
-83 79 -83 18 0 21 -6 21 -41 0 -44 0 -45 -67 -24 -16 5 -23 2 -28 -14 -9 -29
-2 -36 50 -51 37 -10 45 -17 45 -36 0 -17 6 -24 20 -24 14 0 20 7 20 24 0 19
8 27 35 36 41 13 75 53 75 87 0 31 -41 72 -80 79 -27 6 -30 10 -30 45 0 42 9
47 54 29 14 -5 26 -6 26 -2 0 4 3 17 6 29 5 20 1 24 -40 34 -39 9 -46 15 -46
35 0 17 -6 24 -20 24 -15 0 -20 -7 -20 -25z m0 -116 c0 -20 -4 -29 -12 -27
-18 6 -22 39 -6 49 18 12 18 12 18 -22z m64 -115 c29 -11 14 -54 -20 -54 -2 0
-4 14 -4 30 0 32 1 33 24 24z"/>
<path d="M3760 5442 c0 -5 -11 -14 -25 -20 -14 -7 -35 -28 -46 -47 -14 -22
-29 -35 -42 -35 -12 -1 -36 -9 -54 -18 -90 -48 -104 -153 -32 -228 38 -39 81
-148 86 -219 4 -45 1 -56 -32 -105 -60 -88 -140 -164 -289 -273 -77 -56 -162
-120 -190 -143 -77 -61 -75 -74 28 -242 47 -76 86 -149 86 -163 0 -13 -3 -119
-6 -236 l-6 -211 23 -24 c13 -13 35 -30 48 -39 24 -15 24 -18 29 -201 4 -149
1 -206 -13 -285 -39 -221 -97 -382 -202 -558 l-29 -50 -579 -3 c-521 -2 -580
-4 -597 -19 -24 -22 -23 -49 4 -67 20 -14 90 -16 563 -16 l540 -1 26 -43 c50
-82 201 -146 344 -146 68 0 87 4 109 21 32 25 33 57 5 93 -14 18 -19 34 -15
51 l6 25 205 0 c112 0 206 -4 209 -9 4 -5 10 -37 15 -71 9 -70 30 -95 89 -106
18 -3 35 -10 38 -15 10 -16 195 -10 244 8 66 24 100 51 100 77 0 28 -21 48
-82 74 -27 12 -48 26 -48 31 0 8 249 11 815 11 l815 0 0 -28 c0 -45 26 -120
55 -157 29 -38 66 -62 135 -85 109 -36 249 49 285 172 9 32 14 67 10 78 -6 20
-2 20 199 20 l206 0 0 -39 c0 -130 137 -246 268 -226 120 18 212 119 212 234
l0 31 743 0 c787 1 777 0 777 46 0 11 -9 27 -20 37 -19 16 -76 17 -780 17
-691 0 -760 1 -760 16 0 9 11 25 25 36 30 23 34 78 8 99 -13 11 -131 15 -636
19 l-620 5 -28 75 c-16 41 -27 81 -24 88 3 9 154 12 704 12 l700 0 20 25 c11
14 22 40 26 58 4 18 12 52 19 77 8 25 19 65 26 90 7 25 18 65 25 90 7 25 20
74 30 110 9 36 21 76 25 90 5 14 11 37 14 53 6 27 7 27 86 27 44 0 88 4 98 9
9 4 35 17 57 27 66 31 135 102 167 171 57 126 28 281 -71 379 -78 78 -218 130
-285 106 -18 -7 -38 -12 -46 -12 -7 0 -37 -12 -66 -26 -51 -25 -110 -79 -145
-134 l-16 -25 -387 -3 c-260 -2 -393 1 -406 8 -17 9 -20 21 -20 80 0 110 39
100 -376 100 l-364 0 0 -95 0 -95 -83 0 c-93 0 -117 -13 -117 -63 0 -50 30
-67 120 -67 l80 0 0 -134 0 -134 -52 0 c-79 -1 -86 4 -119 76 -30 65 -45 96
-132 282 -21 47 -55 119 -74 160 -19 41 -51 109 -70 150 -20 41 -49 104 -65
140 -65 141 -79 168 -95 181 -16 14 -137 25 -343 31 l-95 3 -1 44 c0 39 -6 49
-47 87 -66 63 -91 61 -170 -14 -104 -98 -138 -127 -152 -127 -13 0 -286 217
-320 254 -9 11 -31 23 -49 27 -60 13 -126 82 -126 133 0 19 6 21 54 21 79 0
80 3 86 202 4 137 8 172 20 181 29 22 50 61 50 94 0 37 -51 103 -80 103 -10 0
-20 5 -22 10 -2 7 -15 5 -36 -5 -31 -16 -72 -13 -72 6 0 5 -22 9 -50 9 -27 0
-50 -4 -50 -8z m860 -1129 c0 -10 11 -31 24 -48 l24 -30 126 -3 c114 -3 130
-2 162 17 21 13 53 21 79 21 l44 0 39 -82 c22 -46 50 -105 62 -133 12 -27 41
-90 65 -140 23 -49 53 -112 65 -140 12 -27 39 -86 60 -130 21 -44 51 -109 68
-145 16 -36 48 -103 70 -150 21 -47 50 -107 62 -135 12 -27 42 -90 65 -140 24
-49 53 -112 65 -140 12 -27 37 -81 56 -119 19 -39 34 -80 34 -93 0 -12 6 -37
14 -55 8 -18 26 -64 39 -103 56 -156 61 -167 84 -178 13 -5 23 -18 23 -29 0
-17 -31 -18 -844 -18 l-844 0 -6 92 c-4 51 -11 140 -16 198 -5 58 -16 186 -25
285 -8 99 -20 230 -25 290 -6 61 -11 137 -13 170 -2 59 -2 59 33 76 68 33 75
49 73 165 -4 132 -52 514 -72 567 -16 40 5 44 47 8 20 -17 52 -39 69 -48 42
-22 52 -16 178 96 55 50 103 90 108 91 4 0 7 -8 7 -17z m-1300 -62 c0 -6 -4
-13 -10 -16 -5 -3 -10 1 -10 9 0 9 5 16 10 16 6 0 10 -4 10 -9z m4382 -316
c104 -17 196 -112 220 -228 30 -144 -69 -294 -221 -333 -53 -13 -71 -14 -114
-3 -97 23 -168 77 -214 161 -25 47 -25 199 1 248 25 49 84 108 130 132 40 20
118 38 146 33 8 -2 32 -6 52 -10z m-1254 -67 l3 -58 -316 0 -315 0 0 53 c0 30
3 57 7 60 4 4 144 6 312 5 l306 -3 3 -57z m-394 -206 c5 -9 0 -32 -35 -157
-12 -44 -27 -86 -33 -94 -8 -10 -28 -12 -77 -9 -36 3 -71 8 -78 12 -12 8 -16
237 -4 249 9 10 221 9 227 -1z m394 -121 c1 -72 -1 -128 -7 -134 -10 -10 -291
-11 -300 -1 -2 2 1 21 7 41 7 21 21 72 33 113 34 119 23 111 152 108 l112 -3
3 -124z m539 107 c-3 -13 -10 -39 -15 -58 -6 -19 -17 -60 -25 -90 -8 -30 -20
-67 -26 -82 l-11 -28 -149 0 c-82 0 -152 4 -155 9 -6 8 57 241 70 262 3 5 75
9 161 9 l155 0 -5 -22z m296 0 c21 -88 30 -114 47 -149 11 -21 33 -54 50 -72
16 -19 27 -37 23 -40 -6 -6 -334 2 -341 8 -4 3 67 253 75 268 2 4 35 7 72 7
63 0 69 -2 74 -22z m-3169 -220 c4 -13 21 -207 36 -403 5 -60 16 -191 25 -290
9 -99 20 -229 25 -290 5 -60 12 -148 16 -194 l7 -84 -112 5 c-62 3 -117 10
-122 15 -8 8 -19 46 -74 278 -162 673 -158 659 -179 663 -28 6 -36 -16 -36
-103 -1 -140 -40 -340 -90 -460 -40 -94 -59 -132 -123 -247 -74 -131 -81 -138
-129 -119 -13 5 -69 24 -125 41 -64 20 -103 38 -103 46 0 8 17 42 38 76 172
282 247 601 223 948 -4 63 -6 118 -4 123 2 4 166 7 364 7 279 0 360 -3 363
-12z m1656 -212 c0 -63 4 -66 92 -66 58 0 60 -1 53 -22 -3 -13 -16 -60 -28
-105 -12 -46 -26 -83 -30 -83 -5 0 -33 53 -63 118 -30 64 -62 131 -71 148 -20
39 -12 64 22 64 24 0 25 -3 25 -54z m175 35 c11 -19 -27 -41 -70 -41 -45 0
-61 11 -51 35 6 17 111 22 121 6z m462 -7 c10 -28 -18 -34 -169 -34 -139 0
-148 1 -148 19 0 11 6 22 13 24 6 3 76 6 155 6 122 1 144 -1 149 -15z m461 1
c1 -1 -3 -26 -10 -56 -10 -44 -13 -49 -16 -26 -7 61 -23 67 -164 67 -114 0
-154 8 -115 23 11 5 298 -3 305 -8z m512 -20 c0 -14 -9 -60 -21 -103 -11 -42
-31 -115 -44 -162 -12 -47 -28 -97 -34 -113 l-11 -27 -177 2 -178 3 1 38 c1
22 7 58 14 80 7 23 18 62 25 87 7 25 20 72 30 105 9 33 21 72 27 88 l10 27
179 0 179 0 0 -25z m-612 -180 c2 -68 -2 -136 -8 -157 l-11 -38 -149 0 c-161
0 -161 0 -141 52 5 13 17 52 26 88 16 60 39 137 50 168 4 9 33 12 117 10 l113
-3 3 -120z m-690 -66 l-3 -154 -43 -3 c-51 -4 -60 11 -42 71 7 23 18 62 25 87
7 25 21 73 31 108 10 34 22 58 26 54 5 -5 7 -78 6 -163z m302 166 c0 -4 -20
-80 -45 -167 -8 -29 -18 -64 -21 -78 -12 -45 -23 -50 -100 -50 l-73 0 -3 143
c-2 78 -2 145 0 150 3 7 242 10 242 2z m-2605 -330 c13 -61 97 -409 111 -457
5 -17 -7 -18 -155 -18 -89 0 -161 2 -161 4 0 3 19 45 43 93 72 152 106 258
122 388 6 46 8 48 21 30 8 -11 17 -29 19 -40z m3306 -422 c47 -9 112 -78 128
-135 11 -40 11 -53 -3 -95 -16 -48 -59 -99 -103 -122 -30 -15 -119 -14 -151 3
-46 24 -90 79 -103 128 -17 64 1 120 57 175 51 50 97 62 175 46z m-868 -18
c136 -56 155 -235 35 -325 -28 -21 -44 -25 -105 -25 -64 0 -75 3 -109 30 -56
46 -76 89 -72 157 9 130 134 212 251 163z m615 -17 c3 -17 -14 -18 -242 -18
-169 0 -247 3 -252 11 -15 24 30 29 256 26 214 -2 235 -4 238 -19z"/>
<path d="M7575 3836 c-17 -7 -36 -20 -43 -28 -10 -13 -8 -18 11 -31 20 -13 26
-13 42 -1 25 18 69 18 85 -1 22 -26 2 -62 -70 -127 -47 -42 -70 -70 -70 -85 0
-23 2 -23 115 -23 l115 0 0 30 0 30 -61 0 -62 0 51 54 c28 30 54 65 58 79 20
83 -79 143 -171 103z"/>
<path d="M6985 2326 c-43 -19 -66 -49 -72 -94 -17 -126 155 -182 221 -72 32
56 8 133 -53 165 -36 18 -56 18 -96 1z m82 -68 c13 -12 23 -30 23 -41 0 -29
-29 -57 -58 -57 -57 0 -84 72 -39 103 30 22 47 21 74 -5z"/>
<path d="M6064 2286 c-30 -30 -34 -40 -34 -84 0 -43 5 -55 30 -80 40 -40 82
-49 129 -27 46 20 71 60 71 113 0 32 -7 48 -34 76 -29 31 -39 36 -81 36 -40 0
-52 -5 -81 -34z m131 -53 c16 -24 16 -30 4 -52 -8 -14 -27 -30 -42 -35 -22 -8
-31 -6 -52 14 -29 27 -31 47 -9 78 23 33 76 30 99 -5z"/>
<path d="M6257 5342 c-15 -16 -17 -59 -19 -348 l-3 -329 -70 -5 c-54 -4 -71
-9 -73 -22 -2 -9 74 -103 190 -234 223 -253 243 -274 256 -274 9 0 416 456
435 487 4 6 4 18 1 27 -5 12 -20 16 -64 16 -98 0 -90 -32 -90 344 0 245 -3
335 -12 344 -9 9 -83 12 -273 12 -240 0 -263 -2 -278 -18z m505 -44 c1 -2 5
-156 8 -343 l5 -340 53 -3 c28 -2 52 -7 52 -11 0 -14 -333 -391 -344 -390 -6
0 -53 48 -104 107 -51 59 -107 123 -125 142 -65 71 -117 133 -117 141 0 5 22
9 49 9 35 0 51 4 55 16 3 9 6 161 6 338 0 178 3 326 7 329 6 6 450 10 455 5z"/>
<path d="M2133 5227 c-47 -53 -63 -132 -25 -125 17 3 71 93 72 119 0 27 -26
30 -47 6z"/>
<path d="M2067 5033 c-14 -13 -7 -130 8 -143 25 -21 35 -1 35 76 0 65 -2 74
-18 74 -10 0 -22 -3 -25 -7z"/>
<path d="M2105 4819 c-9 -14 1 -51 26 -94 16 -26 27 -35 43 -33 32 5 30 30 -5
87 -31 50 -51 62 -64 40z"/>
<path d="M2236 4655 c-22 -22 -13 -36 48 -73 89 -53 121 -19 39 41 -68 48 -70
49 -87 32z"/>
<path d="M2693 4608 c-83 -46 -68 -90 18 -54 42 18 81 54 76 69 -7 21 -41 16
-94 -15z"/>
<path d="M2424 4559 c-4 -7 2 -20 16 -31 18 -15 36 -18 79 -16 52 3 56 5 56
28 0 24 -3 25 -72 28 -48 2 -74 -1 -79 -9z"/>
<path d="M8572 3183 c-33 -16 -49 -49 -43 -88 4 -25 30 -55 48 -55 7 0 13 -4
13 -10 0 -31 84 13 101 52 30 72 -47 137 -119 101z"/>
</g>
</svg>
